<?xml version="1.0" standalone="no"?>
<!DOCTYPE svg PUBLIC "-//W3C//DTD SVG 20010904//EN"
 "http://www.w3.org/TR/2001/REC-SVG-20010904/DTD/svg10.dtd">
<svg version="1.0" xmlns="http://www.w3.org/2000/svg"
 width="500.000000pt" height="500.000000pt" viewBox="0 0 500.000000 500.000000"
 preserveAspectRatio="xMidYMid meet">
<metadata>
Created by potrace 1.11, written by Peter Selinger 2001-2013
</metadata>
<g transform="translate(0.000000,500.000000) scale(0.100000,-0.100000)"
fill="#000000" stroke="none">
<path d="M673 4728 c-42 -57 -111 -148 -153 -203 -42 -55 -79 -106 -84 -112
-6 -10 197 -660 235 -751 16 -40 10 -64 -41 -170 -28 -57 -50 -105 -50 -107 0
-2 -21 -47 -46 -102 -25 -54 -46 -100 -47 -103 0 -3 -13 -30 -28 -60 -15 -30
-44 -91 -64 -135 -64 -138 -94 -203 -126 -272 -17 -38 -46 -99 -64 -138 -18
-38 -45 -97 -60 -130 -15 -33 -45 -98 -67 -145 -61 -128 -59 -122 -31 -171 14
-24 43 -78 65 -119 23 -41 48 -88 58 -105 15 -26 47 -86 183 -335 16 -30 37
-68 47 -85 21 -36 95 -173 195 -360 26 -49 51 -94 55 -100 4 -5 25 -44 48 -85
22 -41 55 -102 73 -135 18 -33 43 -79 56 -103 129 -239 167 -302 177 -300 6 1
43 -2 81 -6 39 -4 90 -9 115 -11 25 -2 68 -6 95 -9 28 -3 79 -8 115 -11 36 -3
81 -7 100 -9 19 -3 69 -7 110 -11 41 -4 86 -8 100 -10 14 -2 61 -7 105 -10 44
-4 91 -9 105 -10 14 -1 59 -6 100 -9 41 -4 98 -9 125 -12 28 -3 68 -7 90 -8
22 -2 76 -7 120 -12 124 -13 303 -8 405 11 9 2 60 6 115 10 55 4 102 9 105 10
3 2 43 6 90 9 47 4 96 9 110 11 14 3 57 7 95 10 39 3 86 7 105 10 19 2 60 7
90 9 30 3 80 8 110 11 30 3 80 8 110 11 30 3 73 7 95 9 105 8 182 16 200 20
11 3 30 24 43 47 13 24 49 90 79 148 31 58 64 117 75 132 10 14 18 28 18 31 0
3 66 126 146 274 241 440 315 575 344 628 15 28 44 82 65 120 21 39 78 143
126 231 l89 162 -46 98 c-25 55 -68 146 -95 203 -27 57 -49 105 -49 107 0 2
-27 60 -60 130 -33 69 -60 128 -60 129 0 2 -26 59 -59 127 -32 68 -70 148 -84
178 -13 30 -44 95 -67 145 -23 49 -53 114 -67 145 -14 30 -37 80 -51 110 -14
30 -26 60 -26 65 0 6 56 179 124 385 68 206 125 382 127 391 1 9 -4 24 -13 35
-8 10 -80 106 -160 212 l-145 192 -229 0 -229 0 -48 -47 c-160 -155 -254 -245
-298 -284 l-50 -44 -895 1 c-492 1 -898 2 -901 3 -6 1 -56 48 -263 247 l-129
124 -228 0 -228 0 -78 -102z"/>
</g>
</svg>
