<?xml version="1.0" standalone="no"?>
<!DOCTYPE svg PUBLIC "-//W3C//DTD SVG 20010904//EN"
 "http://www.w3.org/TR/2001/REC-SVG-20010904/DTD/svg10.dtd">
<svg version="1.0" xmlns="http://www.w3.org/2000/svg"
 width="352.000000pt" height="352.000000pt" viewBox="0 0 352.000000 352.000000"
 preserveAspectRatio="xMidYMid meet">
<metadata>
Created by potrace 1.11, written by Peter Selinger 2001-2013
</metadata>
<g transform="translate(0.000000,352.000000) scale(0.100000,-0.100000)"
fill="#000000" stroke="none">
<path d="M527 3139 c-54 -71 -100 -136 -103 -144 -3 -7 31 -125 75 -262 45
-137 81 -252 81 -256 0 -4 -97 -216 -215 -472 l-215 -465 315 -577 315 -578
487 -48 488 -47 497 47 497 47 315 578 315 578 -214 463 c-118 254 -215 468
-215 475 0 8 37 126 81 263 l82 250 -24 33 c-13 18 -60 80 -104 139 l-80 106
-149 0 -148 1 -125 -120 -124 -120 -596 0 -597 0 -121 120 -122 120 -149 0
-149 0 -98 -131z m468 -59 l99 -100 -198 -192 c-198 -192 -244 -233 -250 -227
-14 15 -135 413 -129 422 5 7 39 54 78 105 l70 92 115 0 115 0 100 -100z
m1947 -3 l77 -103 -64 -199 c-36 -110 -67 -206 -70 -213 -3 -9 -89 67 -229
204 l-225 217 102 98 102 98 115 1 116 0 76 -103z m-717 -145 c-6 -5 -106 -77
-223 -160 -133 -96 -222 -152 -237 -152 -15 0 -104 56 -237 151 -117 83 -217
155 -222 160 -6 5 182 9 459 9 258 0 465 -4 460 -8z m-780 -207 l275 -196 0
-304 0 -303 -222 -114 -223 -115 -5 -471 -5 -472 -245 265 -245 265 -47 542
c-25 299 -48 565 -49 591 l-3 48 240 229 c131 127 243 230 247 230 4 0 131
-88 282 -195z m1169 -35 c181 -173 236 -231 236 -250 0 -14 -21 -281 -47 -593
l-48 -568 -244 -262 c-135 -144 -248 -263 -253 -265 -4 -2 -8 208 -8 466 l0
470 -57 33 c-65 36 -129 70 -280 148 l-103 53 0 306 0 307 273 192 c149 106
277 191 284 190 6 -1 117 -103 247 -227z m-1973 -856 c22 -253 38 -467 37
-476 -2 -14 -43 4 -215 92 l-211 110 124 268 c69 147 146 313 172 369 25 56
48 101 50 99 2 -2 21 -210 43 -462z m2462 99 c92 -199 167 -365 167 -370 0 -4
-95 -57 -210 -116 -194 -99 -210 -106 -210 -85 0 30 68 840 76 896 3 24 7 42
8 40 2 -1 78 -166 169 -365z m-1138 -187 l200 -104 3 -431 2 -431 -180 0
c-170 0 -180 1 -180 19 0 14 32 36 118 84 l117 65 3 111 3 111 -286 0 -286 0
3 -111 3 -111 118 -65 c85 -48 117 -70 117 -84 0 -18 -10 -19 -180 -19 l-180
0 2 432 3 432 195 102 c107 56 197 103 200 103 3 0 95 -46 205 -103z m-1448
-419 l192 -102 376 -405 c207 -222 371 -406 365 -408 -23 -8 -605 51 -618 62
-10 10 -522 943 -522 953 0 9 30 -6 207 -100z m2654 11 c-27 -51 -146 -268
-263 -483 l-214 -390 -317 -30 c-174 -17 -317 -29 -317 -27 0 1 171 186 380
411 l381 408 192 101 c106 56 196 101 200 102 5 0 -14 -42 -42 -92z m-1201
-297 l0 -39 -104 -56 -105 -56 -100 56 -101 56 0 39 0 39 205 0 205 0 0 -39z
m-409 -386 c106 -58 196 -105 201 -105 6 0 96 47 202 105 106 58 196 105 199
105 4 0 7 -24 7 -54 l0 -55 -120 -129 c-135 -145 -130 -143 -289 -141 -158 2
-152 -1 -283 139 l-117 125 -1 58 c0 31 2 57 4 57 3 0 91 -47 197 -105z"/>
<path d="M1160 1923 c-36 -24 -71 -48 -79 -52 -11 -7 -1 -22 45 -64 66 -62 51
-62 168 6 l70 40 -35 29 c-19 16 -50 42 -69 57 l-35 28 -65 -44z"/>
<path d="M2232 1915 c-34 -30 -62 -58 -62 -62 1 -5 40 -30 86 -57 l85 -49 59
58 59 59 -79 53 c-44 29 -81 53 -82 52 -2 0 -31 -24 -66 -54z"/>
</g>
</svg>
